<svg xmlns="http://www.w3.org/2000/svg" viewBox="530 390 440 480" role="img" aria-labelledby="title">
  <title id="title">3ziz Lab</title>
  <rect x="530" y="390" width="440" height="480" rx="72" fill="#e7e3dd"/>
  <g fill="#8d0b0b" transform="translate(558.871567,824.514773)">
    <path d="M 11.890625 -84.84375 C 11.890625 -94.101562 13.804688 -102.960938 17.640625 -111.421875 C 21.472656 -119.878906 25.898438 -126.222656 30.921875 -130.453125 C 48.640625 -112.742188 70.644531 -100.515625 96.9375 -93.765625 C 123.238281 -87.023438 151.988281 -83.65625 183.1875 -83.65625 C 196.40625 -83.65625 210.546875 -83.785156 225.609375 -84.046875 C 240.671875 -84.316406 255.335938 -85.113281 269.609375 -86.4375 C 283.890625 -87.757812 296.84375 -90.070312 308.46875 -93.375 C 320.101562 -96.675781 329.421875 -101.367188 336.421875 -107.453125 C 343.429688 -113.535156 346.9375 -121.332031 346.9375 -130.84375 C 346.9375 -138.25 343.429688 -144.460938 336.421875 -149.484375 C 329.421875 -154.503906 319.90625 -158.46875 307.875 -161.375 C 295.851562 -164.28125 282.039062 -166.328125 266.4375 -167.515625 C 250.84375 -168.710938 234.457031 -169.3125 217.28125 -169.3125 C 180.539062 -169.3125 150.078125 -167.65625 125.890625 -164.34375 C 101.703125 -161.039062 84.191406 -157.144531 73.359375 -152.65625 L 73.359375 -242.265625 L 291.03125 -304.90625 L 160.984375 -304.90625 C 129.523438 -304.90625 103.222656 -302.328125 82.078125 -297.171875 C 60.929688 -292.015625 42.957031 -282.695312 28.15625 -269.21875 L 28.15625 -396.5 L 346.9375 -396.5 L 346.9375 -304.90625 L 122.125 -242.265625 C 134.019531 -243.316406 144.59375 -244.367188 153.84375 -245.421875 C 163.09375 -246.484375 172.34375 -247.410156 181.59375 -248.203125 C 190.84375 -249.003906 201.414062 -249.40625 213.3125 -249.40625 C 266.445312 -249.40625 305.898438 -238.566406 331.671875 -216.890625 C 357.441406 -195.210938 370.328125 -165.34375 370.328125 -127.28125 C 370.328125 -83.132812 354.203125 -49.5625 321.953125 -26.5625 C 289.703125 -3.5625 243.707031 7.9375 183.96875 7.9375 C 162.820312 7.9375 142.070312 6.742188 121.71875 4.359375 C 101.363281 1.984375 82.925781 -2.375 66.40625 -8.71875 C 49.882812 -15.0625 36.664062 -24.378906 26.75 -36.671875 C 16.84375 -48.960938 11.890625 -65.019531 11.890625 -84.84375 Z"/>
  </g>
</svg>